<svg xmlns="http://www.w3.org/2000/svg" viewBox="0 0 1600 900">
  <defs>
    <radialGradient id="spot" cx="0.5" cy="0.55" r="0.6">
      <stop offset="0" stop-color="#4a1428"/>
      <stop offset="1" stop-color="#0d0408"/>
    </radialGradient>
  </defs>
  <rect width="1600" height="900" fill="url(#spot)"/>
  <ellipse cx="800" cy="790" rx="360" ry="42" fill="#000" opacity="0.45"/>
  <path d="M800 0 L560 780 H1040Z" fill="#ffe3ec" opacity="0.07"/>
  <g fill="#1a0a10" stroke="#6b2440" stroke-width="5">
    <rect x="660" y="230" width="280" height="360" rx="24"/>
    <rect x="600" y="560" width="400" height="80" rx="14"/>
    <rect x="560" y="470" width="90" height="40" rx="10"/>
    <rect x="950" y="470" width="90" height="40" rx="10"/>
    <rect x="570" y="510" width="26" height="250"/>
    <rect x="1004" y="510" width="26" height="250"/>
    <rect x="640" y="640" width="26" height="130"/>
    <rect x="934" y="640" width="26" height="130"/>
  </g>
  <g fill="none" stroke="#c9a46a" stroke-width="8">
    <rect x="580" y="462" width="50" height="56" rx="8"/>
    <rect x="970" y="462" width="50" height="56" rx="8"/>
  </g>
  <g fill="#c9a46a">
    <circle cx="605" cy="490" r="7"/>
    <circle cx="995" cy="490" r="7"/>
  </g>
</svg>
