<svg xmlns="http://www.w3.org/2000/svg" viewBox="0 0 96 96" role="img" aria-label="Coastal guide portrait">
  <defs>
    <linearGradient id="sky" x2="0" y2="1">
      <stop stop-color="#b9d6d9"/>
      <stop offset="1" stop-color="#789caa"/>
    </linearGradient>
  </defs>
  <rect width="96" height="96" fill="url(#sky)"/>
  <path d="M0 76c15-9 31-13 48-13s33 4 48 13v20H0z" fill="#294a55"/>
  <path d="M27 96V76c0-12 9-20 21-20s21 8 21 20v20z" fill="#e8c9a5"/>
  <path d="M17 96c2-18 13-28 31-28s29 10 31 28z" fill="#23414d"/>
  <ellipse cx="48" cy="39" rx="20" ry="24" fill="#e8c9a5"/>
  <path d="M27 38c0-20 10-29 23-29 15 0 22 11 20 30-7-5-10-11-12-17-7 8-17 12-31 16z" fill="#263c43"/>
  <circle cx="41" cy="42" r="1.5" fill="#263c43"/>
  <circle cx="55" cy="42" r="1.5" fill="#263c43"/>
  <path d="M42 52c4 3 8 3 12 0" fill="none" stroke="#965f56" stroke-linecap="round" stroke-width="2"/>
</svg>
